<svg width="68" height="59" viewBox="0 0 68 59" fill="none" xmlns="http://www.w3.org/2000/svg">
<rect width="68" height="59" rx="6" fill="#C4C4C4"/>
<path d="M41.5553 23.9844C41.5682 24.2031 41.5682 24.4219 41.5682 24.6406C41.5682 31.3125 37.3823 39 29.7317 39C27.3747 39 25.1851 38.1718 23.3433 36.7344C23.6782 36.7812 24.0001 36.7969 24.3479 36.7969C26.2927 36.7969 28.083 36 29.5127 34.6406C27.6838 34.5938 26.1511 33.1406 25.623 31.1406C25.8806 31.1875 26.1382 31.2187 26.4087 31.2187C26.7822 31.2187 27.1557 31.1562 27.5035 31.0469C25.5973 30.5781 24.1676 28.5469 24.1676 26.0937V26.0313C24.7214 26.4063 25.3654 26.6406 26.048 26.6719C24.9274 25.7656 24.1933 24.2187 24.1933 22.4687C24.1933 21.5312 24.3994 20.6719 24.76 19.9219C26.8079 22.9843 29.8862 24.9843 33.338 25.2031C33.2736 24.8281 33.2349 24.4375 33.2349 24.0469C33.2349 21.2656 35.0896 19 37.3951 19C38.5929 19 39.6748 19.6094 40.4347 20.5937C41.3749 20.375 42.2765 19.9531 43.0751 19.375C42.7659 20.5469 42.1091 21.5313 41.2462 22.1562C42.0834 22.0469 42.8948 21.7656 43.6418 21.375C43.0752 22.375 42.3667 23.2656 41.5553 23.9844Z" fill="black"/>
</svg>
